<?xml version="1.0" encoding="UTF-8" standalone="no"?>
<svg
   xmlns:dc="http://purl.org/dc/elements/1.1/"
   xmlns:cc="http://creativecommons.org/ns#"
   xmlns:rdf="http://www.w3.org/1999/02/22-rdf-syntax-ns#"
   xmlns:svg="http://www.w3.org/2000/svg"
   xmlns="http://www.w3.org/2000/svg"
   viewBox="0 0 591.25336 389.70667"
   height="389.70667"
   width="591.25336"
   xml:space="preserve"
   id="svg2"
   version="1.1"><metadata
     id="metadata8"><rdf:RDF><cc:Work
         rdf:about=""><dc:format>image/svg+xml</dc:format><dc:type
           rdf:resource="http://purl.org/dc/dcmitype/StillImage" /></cc:Work></rdf:RDF></metadata><defs
     id="defs6" /><g
     transform="matrix(1.3333333,0,0,-1.3333333,0,389.70667)"
     id="g10"><g
       transform="scale(0.1)"
       id="g12"><path
         id="path14"
         style="fill:#214597;fill-opacity:1;fill-rule:evenodd;stroke:none"
         d="m 1368.25,674.609 c -44.18,109.801 -85.84,219.602 -126.23,328.161 -46.7,-107.29 -83.3,-217.09 -121.17,-328.161 z m -47.95,484.681 c 63.09,-227.22 124.92,-377.419 233.48,-658.86 37.87,-98.481 66.91,-111.098 122.44,-113.641 l -15.14,-50.488 h -310.5 l 15.15,50.488 c 44.16,2.543 70.67,17.699 70.67,53.031 0,20.2 -7.56,53.032 -47.95,169.121 h -287.8 c -12.61,-37.832 -37.85,-105.992 -37.85,-142.621 0,-56.789 21.45,-76.988 121.17,-79.531 l -15.13,-50.488 H 845.691 l 20.2,50.488 c 50.488,2.543 70.679,18.973 87.089,59.34 97.19,238.57 205.74,518.75 256.23,698.011 l 111.09,15.15" /><path
         id="path16"
         style="fill:#214597;fill-opacity:1;fill-rule:evenodd;stroke:none"
         d="m 2107.59,846.27 c -35.33,7.55 -53.01,15.128 -106.02,15.128 -45.45,0 -90.88,-7.578 -111.07,-20.187 -40.39,-26.512 -85.82,-112.352 -85.82,-219.629 0,-133.773 53.01,-234.793 166.58,-234.793 80.8,0 136.33,40.41 136.33,164.121 z M 1958.64,0 1973.8,50.4805 C 2078.56,53 2107.59,69.4297 2107.59,176.711 V 374.18 h -2.52 c -32.81,-42.891 -107.29,-53.008 -174.18,-53.008 -131.27,0 -234.77,106.027 -234.77,254.976 0,196.911 116.12,358.461 330.71,358.461 h 204.45 c -7.56,-47.968 -15.14,-100.98 -15.14,-189.339 V 143.898 c 0,-65.6363 35.35,-90.898 80.8,-93.4175 L 2281.77,0 h -323.13" /><path
         id="path18"
         style="fill:#214597;fill-opacity:1;fill-rule:evenodd;stroke:none"
         d="m 2770.24,412.051 h -2.52 c -40.39,-50.492 -108.57,-90.879 -170.41,-90.879 -127.48,0 -190.58,60.598 -190.58,156.519 v 272.641 c 0,78.258 -21.45,93.418 -80.78,95.938 l 15.13,50.48 c 59.34,8.832 138.85,29.031 179.22,37.859 -2.48,-44.179 -5.02,-88.339 -5.02,-143.89 V 500.43 c 0,-58.071 27.78,-90.899 113.6,-90.899 70.68,0 131.25,32.828 131.25,113.59 V 770.52 c 0,50.492 -22.7,73.23 -98.42,75.75 l 15.12,50.48 c 65.64,10.082 151.46,29.031 196.93,37.859 -2.54,-30.3 -5.06,-60.589 -5.06,-89.629 V 495.371 c 0,-85.84 20.18,-106.039 78.24,-108.582 l -15.15,-50.488 h -161.55 v 75.75" /><path
         id="path20"
         style="fill:#214597;fill-opacity:1;fill-rule:evenodd;stroke:none"
         d="m 3326.87,409.531 c 118.65,0 151.48,37.867 151.48,198.18 0,177.969 -58.09,238.559 -212.07,238.559 -118.63,0 -151.47,-37.879 -151.47,-198.168 0,-177.973 58.07,-238.571 212.06,-238.571 z m -5.04,525.078 c 165.35,0 265.07,-111.058 265.07,-287.8 0,-198.161 -113.61,-325.637 -315.56,-325.637 -165.35,0 -265.08,111.09 -265.08,287.769 0,198.168 113.61,325.668 315.57,325.668" /><path
         id="path22"
         style="fill:#f35e19;fill-opacity:1;fill-rule:evenodd;stroke:none"
         d="m 554.797,1632.14 c 0,0 -266.711,151.91 -117.793,261.61 261.641,192.73 431.336,207.11 608.486,248.53 326.65,76.36 982.17,112.54 1311.83,77.64 379.24,-40.15 847.79,-98.08 1050.03,-284.86 106.59,-98.42 -92.59,-250.57 -92.59,-250.57 0,0 442.49,146.92 433.96,260.19 -15.71,208.79 -388.74,342.55 -605.93,371.73 -217.18,29.18 -691.37,92.2 -691.37,92.2 0,0 194.46,27.2 762.71,-34.1 421.11,-45.42 748.98,-202.94 748.98,-202.94 0,0 -96.65,179.13 -426.07,268.15 -497.5,134.45 -839.18,136.6 -839.18,136.6 0,0 242.64,14.36 482.85,-2.36 449.1,-31.25 709.53,-130.82 709.53,-130.82 0,0 -50.03,104.29 -383.53,167.52 -333.5,63.24 -754.45,107.21 -754.45,107.21 0,0 162.43,13.02 380.24,4.42 125.88,-4.97 433.17,-34.4 433.17,-34.4 0,0 -513.39,235.32 -1423.09,234.86 C 1426.98,2922.39 916.246,2775.5 748.137,2715.95 580.023,2656.39 -83.9883,2373.93 8.85547,2043.02 79.4688,1791.36 554.797,1632.14 554.797,1632.14" /><path
         id="path24"
         style="fill:#214597;fill-opacity:1;fill-rule:evenodd;stroke:none"
         d="m 3884.42,2569.47 c 0,0 544.54,-153.37 549.93,-505.49 5.39,-352.12 -732.84,-570.76 -817.96,-601.63 -85.13,-30.87 -731.97,-175.8 -1091.59,-179.7 -751.53,-8.14 -977.34,51.1 -1139.01,75.05 -185.99,27.56 -522.931,165.34 -522.931,165.34 0,0 186.561,-27.96 358.521,-38.87 171.96,-10.92 465.54,-13.43 465.54,-13.43 0,0 -306.09,28.9 -579.07,85.83 -443.811,92.55 -558.897,188.82 -558.897,188.82 0,0 453.537,-91.27 575.377,-100.04 121.84,-8.77 613.51,-20.58 613.51,-20.58 0,0 -633.29,74.26 -822.652,133.74 -431.665,135.6 -431.665,274.69 -431.665,274.69 0,0 304.36,-149.86 729.297,-204.59 483.15,-62.23 774.96,-43.95 774.96,-43.95 0,0 -673.22,73.5 -866.37,141.39 -193.156,67.89 -446.637,187.04 -441.652,316.43 4.976,129.38 444.742,274.68 444.742,274.68 0,0 -250.66,-157.11 -30.84,-303.68 329.6,-219.77 1191.13,-291.49 1936.06,-206.01 810.84,93.04 1283.46,320.98 854.7,562" /></g></g></svg>